<svg width="138" height="33" viewBox="0 0 138 33" fill="none" xmlns="http://www.w3.org/2000/svg">
<path d="M55.0054 9.89506C54.882 9.0873 54.327 8.65234 53.4637 8.65234H52.5388C51.7988 8.65234 51.3055 8.96302 51.0588 9.64652L48.4689 16.2329L45.8789 9.64652C45.5706 8.96302 45.139 8.65234 44.399 8.65234H43.474C42.6107 8.65234 42.0557 9.14943 41.9324 9.89506L40.3291 22.1358C40.3291 22.2601 40.3291 22.3844 40.3291 22.4465C40.3291 23.1921 40.8841 23.7514 41.6857 23.7514H42.3024C43.0424 23.7514 43.5973 23.2543 43.7207 22.5087L44.6456 15.4252L46.8039 20.8931C46.9273 21.2038 47.2972 21.763 48.2222 21.763H48.8389C49.8255 21.763 50.1338 21.2038 50.2572 20.831L52.4154 15.363L53.3404 22.4465C53.4637 23.1921 54.0187 23.6892 54.7587 23.6892H55.3754C56.177 23.6892 56.732 23.13 56.732 22.3844C56.732 22.3222 56.732 22.198 56.732 22.0737L55.0054 9.89506Z" fill="#F6B221"/>
<path d="M65.3651 8.3418C63.0218 8.3418 61.0485 9.14956 59.6919 10.703C58.4586 12.07 57.7803 14.0583 57.7803 16.1709C57.7803 18.2835 58.4586 20.2098 59.6919 21.6389C61.0485 23.1923 63.0218 24.0001 65.3651 24.0001C67.7083 24.0001 69.6816 23.1923 71.0382 21.6389C72.2715 20.2719 72.9498 18.2835 72.9498 16.1709C72.9498 14.0583 72.2715 12.07 71.0382 10.703C69.6816 9.14956 67.7083 8.3418 65.3651 8.3418ZM65.3651 20.9554C62.8985 20.9554 61.2335 19.0292 61.2335 16.1709C61.2335 13.3127 62.8985 11.3865 65.3651 11.3865C67.8933 11.3865 69.4966 13.2505 69.4966 16.1709C69.4966 19.0913 67.8933 20.9554 65.3651 20.9554Z" fill="#F6B221"/>
<path d="M83.6796 20.6449H78.0681L84.6662 11.2003C84.8512 10.8896 84.9746 10.6411 84.9746 10.3304C84.9746 10.2061 84.9746 9.95756 84.7896 9.64688L84.6662 9.39834C84.2963 8.77698 83.8029 8.71484 83.3713 8.71484H75.4782C74.6765 8.71484 74.1215 9.21193 74.1215 10.0197V10.4546C74.1215 11.2624 74.6149 11.7595 75.4782 11.7595H80.3497L73.8132 21.2663C73.6282 21.577 73.5049 21.8255 73.5049 22.1362C73.5049 22.2605 73.5049 22.509 73.6899 22.8197L73.8132 23.0682C74.1832 23.6896 74.6765 23.7517 75.1082 23.7517H83.7413C84.5429 23.7517 85.0979 23.2546 85.0979 22.4469V22.0119C85.0362 21.2042 84.4812 20.6449 83.6796 20.6449Z" fill="#F6B221"/>
<path d="M96.3207 20.6449H90.7092L97.3074 11.2003C97.4923 10.8896 97.6157 10.6411 97.6157 10.3304C97.6157 10.2061 97.6157 9.95756 97.4307 9.64688L97.3074 9.39834C96.9374 8.77698 96.444 8.71484 96.0124 8.71484H88.1193C87.3176 8.71484 86.7626 9.21193 86.7626 10.0197V10.4546C86.7626 11.2624 87.256 11.7595 88.1193 11.7595H92.9908L86.4543 21.2663C86.2693 21.577 86.146 21.8255 86.146 22.1362C86.146 22.2605 86.146 22.509 86.331 22.8197L86.4543 23.0682C86.8243 23.6896 87.3176 23.7517 87.7493 23.7517H96.3824C97.184 23.7517 97.739 23.2546 97.739 22.4469V22.0119C97.6773 21.2042 97.1224 20.6449 96.3207 20.6449Z" fill="#F6B221"/>
<path d="M111.737 21.9494L106.989 9.58438C106.742 8.96302 106.249 8.65234 105.509 8.65234H104.83C103.967 8.65234 103.536 9.14943 103.351 9.58438L98.6023 21.9494C98.5407 22.0737 98.479 22.2601 98.479 22.5087C98.479 23.2543 98.9723 23.6892 99.774 23.6892H100.514C101.192 23.6892 101.624 23.3786 101.871 22.6951L102.734 20.396H107.482L108.407 22.7572C108.654 23.4407 109.085 23.7514 109.764 23.7514H110.504C111.244 23.7514 111.799 23.2543 111.799 22.5708C111.86 22.2601 111.799 22.1358 111.737 21.9494ZM103.967 17.3514L105.2 14.2446L106.434 17.3514H103.967Z" fill="#F6B221"/>
<path d="M121.727 18.1588C121.665 18.0966 121.665 18.0345 121.603 17.9724C123.268 17.1025 124.255 15.4869 124.255 13.5607C124.255 10.2675 122.158 8.58984 118.088 8.58984H114.882C114.019 8.58984 113.402 9.2112 113.402 10.0811V22.384C113.402 23.1918 113.957 23.6889 114.758 23.6889H115.437C116.238 23.6889 116.793 23.1297 116.793 22.384V18.6559H118.088C118.273 18.8423 118.458 19.0287 118.705 19.4636L120.987 23.0054C121.295 23.5025 121.727 23.751 122.343 23.751H123.022C123.762 23.751 124.317 23.2539 124.317 22.5083C124.317 22.2597 124.193 21.9491 124.008 21.7005L121.727 18.1588ZM118.52 15.6112H116.732V11.6345H117.965C120.802 11.6345 120.802 13.0015 120.802 13.4364C120.802 15.4869 119.075 15.6112 118.52 15.6112Z" fill="#F6B221"/>
<path d="M135.725 8.65234H126.167C125.365 8.65234 124.749 9.21157 124.749 9.9572V10.3922C124.749 11.1378 125.365 11.697 126.167 11.697H129.25V22.3844C129.25 23.1922 129.805 23.6892 130.607 23.6892H131.285C132.087 23.6892 132.642 23.13 132.642 22.3844V11.697H135.725C136.527 11.697 137.143 11.1378 137.143 10.3922V9.9572C137.143 9.21157 136.527 8.65234 135.725 8.65234Z" fill="#F6B221"/>
<path d="M17.8215 9.9572C17.5748 10.5164 15.4166 16.1087 15.4166 16.1087C15.4166 16.1087 13.1966 10.5164 13.0116 9.9572C12.7033 9.21157 11.9633 8.65234 11.1 8.65234C10.1134 8.65234 9.25006 9.39798 9.06506 10.33C8.94173 11.1999 7.52344 21.6388 7.52344 22.0116C7.52344 22.9436 8.26342 23.7514 9.25006 23.7514C10.1134 23.7514 10.7917 23.13 10.915 22.3222C11.0383 21.5766 11.7783 15.9222 11.7783 15.9222C11.7783 15.9222 13.7516 20.9553 13.8749 21.2659C14.1216 21.8252 14.7382 22.3222 15.4782 22.3222C16.1565 22.3222 16.8348 21.8252 17.0815 21.2659C17.2048 20.8931 19.1781 15.9222 19.1781 15.9222C19.1781 15.9222 19.9181 21.5766 20.0414 22.3222C20.1648 23.0679 20.9047 23.7514 21.7064 23.7514C22.6314 23.7514 23.433 23.0057 23.433 22.0116C23.433 21.5766 22.0147 11.1999 21.8914 10.33C21.7064 9.33584 20.9047 8.65234 19.8564 8.65234C18.8698 8.65234 18.1298 9.14943 17.8215 9.9572Z" fill="#F6B221"/>
<path d="M16.958 21.2669L17.0203 21.1426C17.0203 21.2047 16.958 21.2669 16.958 21.2669Z" fill="#F6B221"/>
<path d="M28.5517 10.8269C27.6267 10.8269 26.8251 11.5725 26.8251 12.5667C26.8251 12.7531 26.8868 12.9395 26.9484 13.1259C27.2567 14.1822 27.4417 15.3007 27.4417 16.4812C27.4417 23.1919 22.0769 28.5978 15.4171 28.5978C8.81892 28.5978 3.39241 23.1919 3.39241 16.4812C3.39241 9.77057 8.75726 4.36474 15.4171 4.36474C16.5887 4.36474 17.6987 4.55115 18.8086 4.86183C18.932 4.92396 19.117 4.92396 19.302 4.92396C20.2269 4.92396 21.0286 4.17833 21.0286 3.18416C21.0286 2.31426 20.4119 1.63076 19.672 1.50649C18.377 1.13367 16.9587 0.947266 15.4787 0.947266C6.96898 0.947266 0.0625 7.90649 0.0625 16.4812C0.0625 25.056 6.96898 32.0152 15.4787 32.0152C23.9885 32.0152 30.895 25.056 30.895 16.4812C30.895 14.9278 30.6483 13.4987 30.2783 12.0696C30.0317 11.324 29.3534 10.8269 28.5517 10.8269Z" fill="#F6B221"/>
<path d="M29.7228 5.04854C29.5995 4.92427 29.5995 4.67573 29.7228 4.48932L31.2645 2.93592C31.9428 2.25243 31.9428 1.19612 31.2645 0.512621C30.5861 -0.170874 29.5378 -0.170874 28.8595 0.512621L27.3179 2.06602C27.1946 2.19029 26.9479 2.19029 26.7629 2.06602L25.2213 0.512621C24.543 -0.170874 23.4947 -0.170874 22.8164 0.512621C22.138 1.19612 22.138 2.25243 22.8164 2.93592L24.358 4.48932C24.4813 4.61359 24.4813 4.86214 24.358 5.04854L22.8164 6.60194C22.138 7.28544 22.138 8.34175 22.8164 9.02524C23.4947 9.70874 24.543 9.70874 25.2213 9.02524L26.7629 7.47184C26.8862 7.34757 27.1329 7.34757 27.3179 7.47184L28.8595 9.02524C29.5378 9.70874 30.5861 9.70874 31.2645 9.02524C31.9428 8.34175 31.9428 7.28544 31.2645 6.60194L29.7228 5.04854Z" fill="#F6B221"/>
</svg>
